Coordinates
version=1
nRows=16
nColumns=40
inDegrees=yes
endheader
time	pelvis_tilt	pelvis_list	pelvis_rotation	pelvis_tx	pelvis_ty	pelvis_tz	hip_flexion_r	hip_adduction_r	hip_rotation_r	knee_angle_r	knee_angle_r_beta	ankle_angle_r	subtalar_angle_r	mtp_angle_r	hip_flexion_l	hip_adduction_l	hip_rotation_l	knee_angle_l	knee_angle_l_beta	ankle_angle_l	subtalar_angle_l	mtp_angle_l	lumbar_extension	lumbar_bending	lumbar_rotation	arm_flex_r	arm_add_r	arm_rot_r	elbow_flex_r	pro_sup_r	wrist_flex_r	wrist_dev_r	arm_flex_l	arm_add_l	arm_rot_l	elbow_flex_l	pro_sup_l	wrist_flex_l	wrist_dev_l
1760625248.44629598	      6.07367501	     -2.00167582	      0.61690629	      0.16272311	      0.86955622	     -0.00197556	     80.00000000	     -7.00000000	      0.00000000	     80.00000000	      1.39626340	      0.00000000	      0.00000000	      0.00000000	     80.00000000	     -7.00000000	      0.00000000	     80.00000000	      1.39626340	      0.00000000	      0.00000000	      0.00000000	    -12.71533568	     -1.45081799	      1.38425793	      5.00084844	     -5.62918820	     10.94088824	      0.00000000	      0.00000000	     -9.59185842	    -15.54455951	      5.30742136	     -5.87231428	     13.11394359	      0.00000000	      6.91146218	     -5.87669814	     -3.97163198
1760625248.45629597	      6.07648724	     -2.00084344	      0.61615391	      0.16272255	      0.86949591	     -0.00198814	     80.00000000	     -7.00000000	      0.00000000	     80.00000000	      1.39626340	      0.00000000	      0.00000000	      0.00000000	     80.00000000	     -7.00000000	      0.00000000	     80.00000000	      1.39626340	      0.00000000	      0.00000000	      0.00000000	    -12.71386115	     -1.45048544	      1.38370241	      5.00070129	     -5.62915820	     10.94157489	      0.00000000	      0.00000000	     -9.59126138	    -15.54447427	      5.30608609	     -5.87318931	     13.11421732	      0.00000000	      6.91188526	     -5.87623454	     -3.97183928
1760625248.46629596	      6.07857028	     -2.00020469	      0.61669065	      0.16266627	      0.86951736	     -0.00198844	     80.00000000	     -7.00000000	      0.00000000	     80.00000000	      1.39626340	      0.00000000	      0.00000000	      0.00000000	     80.00000000	     -7.00000000	      0.00000000	     80.00000000	      1.39626340	      0.00000000	      0.00000000	      0.00000000	    -12.71219121	     -1.45023480	      1.38428161	      5.00138559	     -5.62864872	     10.94184638	      0.00000000	      0.00000000	     -9.59102902	    -15.54443721	      5.30475419	     -5.87293871	     13.11424053	      0.00000000	      6.91201472	     -5.87607699	     -3.97189828
1760625248.47629595	      6.08010950	     -2.00024726	      0.61685008	      0.16266789	      0.86948088	     -0.00200268	     80.00000000	     -7.00000000	      0.00000000	     80.00000000	      1.39626340	      0.00000000	      0.00000000	      0.00000000	     80.00000000	     -7.00000000	      0.00000000	     80.00000000	      1.39626340	      0.00000000	      0.00000000	      0.00000000	    -12.71105203	     -1.45038012	      1.38449140	      5.00216626	     -5.62831450	     10.94199693	      0.00000000	      0.00000000	     -9.59090936	    -15.54441976	      5.30475428	     -5.87303813	     13.11427497	      0.00000000	      6.91208181	     -5.87600204	     -3.97192423
1760625248.48629594	      6.10080405	     -1.99957414	      0.62014152	      0.16277544	      0.86947175	     -0.00200227	     80.00000000	     -7.00000000	      0.00000000	     80.00000000	      1.39626340	      0.00000000	      0.00000000	      0.00000000	     80.00000000	     -7.00000000	      0.00000000	     80.00000000	      1.39626340	      0.00000000	      0.00000000	      0.00000000	    -12.69503521	     -1.45152400	      1.38866195	      5.00999221	     -5.62466479	     10.94437969	      0.00000000	      0.00000000	     -9.58908444	    -15.54415240	      5.29890739	     -5.87448076	     13.11447570	      0.00000000	      6.91303823	     -5.87493356	     -3.97228704
1760625248.49629593	      6.10194844	     -1.99924701	      0.62045089	      0.16270936	      0.86948673	     -0.00199662	     80.00000000	     -7.00000000	      0.00000000	     80.00000000	      1.39626340	      0.00000000	      0.00000000	      0.00000000	     80.00000000	     -7.00000000	      0.00000000	     80.00000000	      1.39626340	      0.00000000	      0.00000000	      0.00000000	    -12.69432395	     -1.45151142	      1.38891988	      5.01016240	     -5.62452399	     10.94461234	      0.00000000	      0.00000000	     -9.58890500	    -15.54412336	      5.29793870	     -5.87451132	     13.11447001	      0.00000000	      6.91313100	     -5.87482717	     -3.97231856
1760625248.50629592	      6.10291797	     -1.99896226	      0.62081210	      0.16269492	      0.86947769	     -0.00199767	     80.00000000	     -7.00000000	      0.00000000	     80.00000000	      1.39626340	      0.00000000	      0.00000000	      0.00000000	     80.00000000	     -7.00000000	      0.00000000	     80.00000000	      1.39626340	      0.00000000	      0.00000000	      0.00000000	    -12.69360595	     -1.45142654	      1.38929144	      5.01086151	     -5.62444280	     10.94477016	      0.00000000	      0.00000000	     -9.58879815	    -15.54411456	      5.29766090	     -5.87460414	     13.11448419	      0.00000000	      6.91318894	     -5.87476562	     -3.97233889
1760625248.51629591	      6.10434521	     -1.99862460	      0.62135606	      0.16268182	      0.86946939	     -0.00200143	     80.00000000	     -7.00000000	      0.00000000	     80.00000000	      1.39626340	      0.00000000	      0.00000000	      0.00000000	     80.00000000	     -7.00000000	      0.00000000	     80.00000000	      1.39626340	      0.00000000	      0.00000000	      0.00000000	    -12.69241067	     -1.45131690	      1.38984852	      5.01201242	     -5.62449205	     10.94495805	      0.00000000	      0.00000000	     -9.58867908	    -15.54410965	      5.29751283	     -5.87480256	     13.11450966	      0.00000000	      6.91325391	     -5.87470181	     -3.97236293
1760625248.52629590	      6.11747133	     -1.99625276	      0.62451057	      0.16271892	      0.86945368	     -0.00202232	     80.00000000	     -7.00000000	      0.00000000	     80.00000000	      1.39626340	      0.00000000	      0.00000000	      0.00000000	     80.00000000	     -7.00000000	      0.00000000	     80.00000000	      1.39626340	      0.00000000	      0.00000000	      0.00000000	    -12.68081926	     -1.45098047	      1.39273181	      5.02493688	     -5.62625697	     10.94731439	      0.00000000	      0.00000000	     -9.58722813	    -15.54412867	      5.30040611	     -5.87757068	     13.11505995	      0.00000000	      6.91408736	     -5.87390141	     -3.97265225
1760625248.53629589	      6.11829135	     -1.99589994	      0.62477832	      0.16268257	      0.86946456	     -0.00203337	     80.00000000	     -7.00000000	      0.00000000	     80.00000000	      1.39626340	      0.00000000	      0.00000000	      0.00000000	     80.00000000	     -7.00000000	      0.00000000	     80.00000000	      1.39626340	      0.00000000	      0.00000000	      0.00000000	    -12.68019030	     -1.45075227	      1.39307969	      5.02544803	     -5.62632511	     10.94746326	      0.00000000	      0.00000000	     -9.58712573	    -15.54412642	      5.30010242	     -5.87786089	     13.11507749	      0.00000000	      6.91415011	     -5.87384508	     -3.97267359
1760625248.54629588	      6.11953399	     -1.99543926	      0.62518859	      0.16266993	      0.86944738	     -0.00204675	     80.00000000	     -7.00000000	      0.00000000	     80.00000000	      1.39626340	      0.00000000	      0.00000000	      0.00000000	     80.00000000	     -7.00000000	      0.00000000	     80.00000000	      1.39626340	      0.00000000	      0.00000000	      0.00000000	    -12.67922443	     -1.45043118	      1.39359954	      5.02656648	     -5.62642883	     10.94764802	      0.00000000	      0.00000000	     -9.58700744	    -15.54412857	      5.30013270	     -5.87825392	     13.11511933	      0.00000000	      6.91422587	     -5.87378023	     -3.97270166
1760625248.55629611	      6.13147674	     -1.99006688	      0.63004459	      0.16268090	      0.86946824	     -0.00208652	     80.00000000	     -7.00000000	      0.00000000	     80.00000000	      1.39626340	      0.00000000	      0.00000000	      0.00000000	     80.00000000	     -7.00000000	      0.00000000	     80.00000000	      1.39626340	      0.00000000	      0.00000000	      0.00000000	    -12.66839253	     -1.44706879	      1.39882894	      5.04085949	     -5.63017335	     10.95014638	      0.00000000	      0.00000000	     -9.58550461	    -15.54421109	      5.30361402	     -5.88245666	     13.11582945	      0.00000000	      6.91529389	     -5.87288391	     -3.97307406
1760625248.56629610	      6.13216960	     -1.99028140	      0.62993933	      0.16266578	      0.86943896	     -0.00211522	     80.00000000	     -7.00000000	      0.00000000	     80.00000000	      1.39626340	      0.00000000	      0.00000000	      0.00000000	     80.00000000	     -7.00000000	      0.00000000	     80.00000000	      1.39626340	      0.00000000	      0.00000000	      0.00000000	    -12.66806421	     -1.44720648	      1.39884412	      5.04132893	     -5.63028842	     10.95029089	      0.00000000	      0.00000000	     -9.58540081	    -15.54420992	      5.30388931	     -5.88276740	     13.11588637	      0.00000000	      6.91537792	     -5.87281092	     -3.97310015
1760625248.57629609	      6.13353107	     -1.98992864	      0.63018685	      0.16264000	      0.86941078	     -0.00211821	     80.00000000	     -7.00000000	      0.00000000	     80.00000000	      1.39626340	      0.00000000	      0.00000000	      0.00000000	     80.00000000	     -7.00000000	      0.00000000	     80.00000000	      1.39626340	      0.00000000	      0.00000000	      0.00000000	    -12.66710312	     -1.44695580	      1.39911948	      5.04218529	     -5.63039560	     10.95046025	      0.00000000	      0.00000000	     -9.58528605	    -15.54421039	      5.30425706	     -5.88298605	     13.11593374	      0.00000000	      6.91544810	     -5.87273344	     -3.97313171
1760625248.58629608	      6.14372919	     -1.98685253	      0.63473318	      0.16262909	      0.86938822	     -0.00215828	     80.00000000	     -7.00000000	      0.00000000	     80.00000000	      1.39626340	      0.00000000	      0.00000000	      0.00000000	     80.00000000	     -7.00000000	      0.00000000	     80.00000000	      1.39626340	      0.00000000	      0.00000000	      0.00000000	    -12.65893681	     -1.44554884	      1.40383777	      5.05633960	     -5.63172084	     10.95319985	      0.00000000	      0.00000000	     -9.58331997	    -15.54424312	      5.31341928	     -5.88421153	     13.11679092	      0.00000000	      6.91669852	     -5.87128344	     -3.97366213
1760625248.59629607	      6.14402888	     -1.98679029	      0.63456652	      0.16260421	      0.86938731	     -0.00220877	     80.00000000	     -7.00000000	      0.00000000	     80.00000000	      1.39626340	      0.00000000	      0.00000000	      0.00000000	     80.00000000	     -7.00000000	      0.00000000	     80.00000000	      1.39626340	      0.00000000	      0.00000000	      0.00000000	    -12.65885737	     -1.44530134	      1.40404452	      5.05667871	     -5.63135683	     10.95330447	      0.00000000	      0.00000000	     -9.58321865	    -15.54423281	      5.31357464	     -5.88508974	     13.11683330	      0.00000000	      6.91676060	     -5.87127459	     -3.97371635
